<svg version="1.2" xmlns="http://www.w3.org/2000/svg" viewBox="0 0 227 64" width="227" height="64">
	<title>CEED</title>
	<style>
		.s0 { fill: #000000 } 
		.s1 { fill: #e34626 } 
	</style>
	<path id="path1" class="s0" d="m63 1.9h41.3v12.3h-27.9v11.3h26.3v12.4h-26.3v12.3h29.4v12.4h-42.8z"/>
	<path id="path2" class="s0" d="m117.1 1.9h41.2v12.3h-27.9v11.3h26.3v12.4h-26.3v12.3h29.4v12.4h-42.7z"/>
	<path id="path3" class="s0" d="m170.5 1.9h20.1q7.3 0 13.9 1.6 6.5 1.6 11.4 5.3 4.9 3.6 7.8 9.5 2.8 5.8 2.8 14.1 0 7.4-2.8 13-2.7 5.6-7.5 9.4-4.7 3.8-10.8 5.8-6.2 2-13 2h-21.9zm13.4 48.3h7q4.6 0 8.6-0.9 4-0.9 6.9-3.1 2.9-2.2 4.6-5.8 1.6-3.5 1.6-8.7 0-4.4-1.6-7.7-1.7-3.3-4.5-5.5-2.9-2.1-6.7-3.2-3.8-1.1-8-1.1h-7.9z"/>
	<path id="path4" class="s1" d="m16.4 21.8c5.2-8 15.6-10.8 24.2-6.3l9.1-2.9-2.9-8.9c-14.4-7.6-32.1-3.1-41.2 10.1z"/>
	<path id="path5" class="s0" d="m45.8 44q-0.6 0.7-1.3 1.3c-5.6 5.3-14.1 6.7-21.3 2.9-9-4.8-12.4-16-7.7-25q0.4-0.8 0.9-1.4l-10.8-8-1.9 3.1c-8.2 15.5-2.3 34.9 13.2 43.1 13.6 7.3 30.2 3.6 39.6-8z"/>
</svg>