<svg version="1.2" xmlns="http://www.w3.org/2000/svg" viewBox="0 0 237 65" width="237" height="65">
	<title>CGEC</title>
	<style>
		.s0 { fill: #e24827 } 
		.s1 { fill: #000000 } 
	</style>
	<path id="path1" class="s0" d="m16.5 21.9c5.2-8 15.7-10.8 24.2-6.3l9.2-2.9-2.9-9c-14.4-7.7-32.3-3.1-41.3 10.2z"/>
	<path id="path2" class="s1" d="m46 44.2q-0.6 0.7-1.3 1.3c-5.6 5.3-14.2 6.7-21.4 2.9-9.1-4.8-12.5-16.1-7.7-25.1q0.4-0.8 0.9-1.4l-10.8-8-2 3.1c-8.2 15.6-2.3 35 13.3 43.3 13.7 7.3 30.3 3.6 39.8-8z"/>
	<path id="path3" class="s1" d="m118.5 58.7q-6 3.1-12.5 4.5-6.5 1.4-13.2 1.4-7.2 0-13.3-2.3-6-2.2-10.5-6.4-4.4-4.2-6.8-10.2-2.5-6-2.5-13.4 0-7.3 2.5-13.3 2.4-6 6.8-10.2 4.5-4.2 10.5-6.4 6.1-2.3 13.3-2.3 7.3 0 13.5 1.8 6.2 1.8 10.9 6.1l-9.5 10.4q-2.8-2.9-6.3-4.3-3.4-1.5-8.6-1.5-4.4 0-7.9 1.5-3.5 1.4-6 4.1-2.5 2.6-3.8 6.3-1.4 3.6-1.4 7.8 0 4.4 1.4 8 1.3 3.6 3.8 6.2 2.5 2.7 6 4.1 3.5 1.5 7.9 1.5 4.4 0 7.6-1 3.2-1 5.1-2v-10h-11v-12.5h24z"/>
	<path id="path4" class="s1" d="m130.9 1.7h41.7v12.5h-28.2v11.4h26.6v12.5h-26.6v12.4h29.7v12.5h-43.2z"/>
	<path id="path5" class="s1" d="m225.1 17.6q-2-2.4-4.9-3.7-2.9-1.3-6.8-1.3-3.8 0-7 1.5-3.3 1.4-5.6 4.1-2.4 2.6-3.8 6.3-1.3 3.6-1.3 7.8 0 4.4 1.3 8 1.4 3.6 3.7 6.2 2.3 2.7 5.5 4.1 3.2 1.5 6.8 1.5 4.2 0 7.4-1.7 3.2-1.8 5.3-4.9l11.2 8.4q-3.9 5.5-9.9 8.1-5.9 2.6-12.3 2.6-7.2 0-13.2-2.3-6.1-2.2-10.5-6.4-4.4-4.2-6.9-10.2-2.4-6-2.4-13.4 0-7.3 2.4-13.3 2.5-6 6.9-10.2 4.4-4.2 10.5-6.4 6-2.3 13.2-2.3 2.6 0 5.5 0.5 2.8 0.5 5.5 1.5 2.7 1.1 5.2 2.8 2.6 1.7 4.5 4.2z"/>
</svg>